<?xml version="1.0" encoding="UTF-8"?>
<svg id="Layer_2" data-name="Layer 2" xmlns="http://www.w3.org/2000/svg" viewBox="0 0 1024 133.92">
  <defs>
    <style>
      .cls-1 {
        fill: #fe7400;
      }

      .cls-1, .cls-2, .cls-3, .cls-4 {
        stroke-width: 0px;
      }

      .cls-2 {
        fill: #25282d;
      }

      .cls-3 {
        fill: #fff;
      }

      .cls-4 {
        fill: #d4d7d4;
      }
    </style>
  </defs>
  <g id="Layer_1-2" data-name="Layer 1">
    <g>
      <path class="cls-1" d="M92.27,77c-1.28-.66-1.33-2.71-1.5-4.06-.17-2.23-.3-4.5-.47-6.73-.15-3.02-1.15-5.51-4.27-5.78-4.34-.27-9.56-.32-10.94-5.43-.42-1.55-.25-3.41-.49-4.94-.51-4.19-5.92-2.88-9.29-3.31-9.48-.44-7.77-2.95-1.96-8.14,4.55-4.39,9.17-9.13,15.64-9.71,3.6-.53,7.32-.93,10.31-3.2,1.94-1.39,3.67-3.27,5.33-5.04C104.31,9.96,116.61,3.13,130.82.31c6.2-1.31,7.63,1.62,6.43,7.4-2.82,16.48-11.84,29.81-24.63,40.31-4.82,4.39-4.28,8.72-5.65,14.52-1.16,4.61-4.71,7.96-8.28,10.84-2.19,1.65-4.36,4.11-6.38,3.64l-.05-.02Z"/>
      <path class="cls-2" d="M67.97,105.51c-.66,1.85-1.04,3.84-1.09,5.92-17.6-5.54-32.86-15.1-46.21-27.79-.36-.34-.69-.59-1.02-.74-1.92,1.35-4.26,2.15-6.79,2.15-6.53,0-11.83-5.3-11.83-11.83,0-4.13,2.11-7.76,5.31-9.87-.09-.3-.22-.63-.39-.98-3.84-8.13-4.3-16.34.23-24.33,4.33-7.63,11.53-11.42,19.69-13.63,9.83-2.65,19.66-1.77,29.47.16,1.58.31,3.16.69,4.73,1.06.32.08.6.29.5.24-6.37-.18-13.14-.78-19.88-.47-9.15.42-17.97,2.41-24.95,9.04-6.23,5.93-7.84,14.94-4.54,23.44.53,1.37,1.14,2.54,1.97,3.5,6.39.16,11.51,5.4,11.51,11.82,0,1.35-.23,2.64-.65,3.85.29,1.16,1.03,2,1.94,2.86,6.6,6.14,13.75,11.51,21.49,16.15,6.52,3.9,13.26,7.2,20.49,9.45Z"/>
      <path class="cls-2" d="M125.76,113.49c-7.2,4.3-15.2,5.78-23.51,5.29.68-1.82,1.08-3.77,1.15-5.81,1.57.02,3.14-.02,4.7-.14,8.01-.66,15.14-3.43,20.46-9.76,4.78-5.68,5.57-12.24,3.95-19.28-1.8-7.85-5.55-14.79-9.76-21.59,7.25,8.09,13.5,16.89,14.9,27.99,1.21,9.61-1.29,16.98-11.88,23.3Z"/>
      <circle class="cls-4" cx="84.89" cy="112.31" r="15.95"/>
      <circle class="cls-2" cx="114.47" cy="23.57" r="5.66"/>
      <path class="cls-1" d="M47.84,93.92c-.54,0-1.08-.2-1.5-.59-.88-.83-.92-2.21-.1-3.09l24.18-25.72c.83-.88,2.21-.92,3.09-.1.88.83.92,2.21.1,3.09l-24.18,25.72c-.43.46-1.01.69-1.59.69Z"/>
      <path class="cls-1" d="M43.21,85.69c-.54,0-1.08-.2-1.5-.59-.88-.83-.92-2.21-.1-3.09l24.18-25.72c.83-.88,2.21-.92,3.09-.1.88.83.92,2.21.1,3.09l-24.18,25.72c-.43.46-1.01.69-1.59.69Z"/>
      <path class="cls-1" d="M57.62,97.01c-.54,0-1.08-.2-1.5-.59-.88-.83-.92-2.21-.1-3.09l24.18-25.72c.83-.88,2.21-.92,3.09-.1.88.83.92,2.21.1,3.09l-24.18,25.72c-.43.46-1.01.69-1.59.69Z"/>
      <g>
        <path class="cls-1" d="M45.79,108.19c-.85-.85-2.24-.85-3.09,0l-9.34,9.34c-.31-.05-.62-.08-.94-.08-3.41,0-6.17,2.76-6.17,6.17s2.76,6.17,6.17,6.17,6.17-2.76,6.17-6.17c0-1.44-.5-2.76-1.32-3.81l8.53-8.53c.85-.85.85-2.24,0-3.09Z"/>
        <path class="cls-1" d="M34.99,104.08c.85-.85.85-2.24,0-3.09-.85-.85-2.24-.85-3.09,0l-21.13,21.13c-.77-.35-1.63-.55-2.53-.55-3.41,0-6.17,2.76-6.17,6.17s2.76,6.17,6.17,6.17,6.17-2.76,6.17-6.17c0-.9-.2-1.76-.55-2.53l21.13-21.13Z"/>
        <path class="cls-1" d="M9.26,113.85c5.11,0,9.26-4.15,9.26-9.26,0-.87-.13-1.7-.35-2.5l9.85-7.04c.98-.7,1.21-2.07.51-3.05-.7-.98-2.07-1.21-3.05-.51l-9.47,6.77c-1.69-1.8-4.08-2.93-6.75-2.93-5.11,0-9.26,4.15-9.26,9.26s4.15,9.26,9.26,9.26Z"/>
      </g>
    </g>
    <g>
      <path class="cls-3" d="M223.22,46.39l20.7,28.69v-28.69h11.21v46.39h-11l-20.63-28.83v28.83h-11.21v-46.39h10.93Z"/>
      <path class="cls-3" d="M305.07,46.39v10.18h-21.86v8.74h18.58v8.2h-18.58v9.09h21.86v10.18h-33.14v-46.39h33.14Z"/>
      <path class="cls-3" d="M315.11,92.78l15.71-23.57-15.17-22.82h13.05l10.73,16.19,10.66-16.19h13.05l-15.17,22.82,15.78,23.57h-13.53l-10.8-16.47-10.86,16.47h-13.46Z"/>
      <path class="cls-3" d="M371.13,46.39h39.63v10.18h-14.21v36.21h-11.2v-36.21h-14.21v-10.18Z"/>
      <path class="cls-3" d="M419.1,80.62v-8.06h17.9v8.06h-17.9Z"/>
      <path class="cls-3" d="M447.18,69.55c0-4.65,1.01-8.79,3.04-12.43,2.03-3.64,4.88-6.5,8.57-8.57,3.69-2.07,7.97-3.11,12.84-3.11,3.37,0,6.39.33,9.05.99,2.66.66,5.45,1.74,8.37,3.25v11h-.68c-2.73-1.73-5.44-2.95-8.13-3.66-2.69-.71-5.42-1.06-8.2-1.06-2.6,0-4.9.57-6.9,1.71-2,1.14-3.56,2.73-4.68,4.78-1.12,2.05-1.67,4.42-1.67,7.11,0,2.82.52,5.3,1.57,7.41,1.05,2.12,2.52,3.75,4.41,4.88,1.89,1.14,4.09,1.71,6.59,1.71,2.14,0,3.96-.33,5.47-.99,1.5-.66,2.64-1.54,3.42-2.63.77-1.09,1.16-2.28,1.16-3.55h-10.59v-7.86h22.55c0,5.78-.83,10.53-2.49,14.24-1.66,3.71-4.15,6.47-7.45,8.27-3.3,1.8-7.46,2.7-12.47,2.7s-9.04-1.04-12.64-3.11c-3.6-2.07-6.35-4.93-8.27-8.57-1.91-3.64-2.87-7.81-2.87-12.5Z"/>
      <path class="cls-3" d="M539.34,46.39v10.18h-21.86v8.74h18.58v8.2h-18.58v9.09h21.86v10.18h-33.14v-46.39h33.14Z"/>
      <path class="cls-3" d="M565.16,46.39l20.7,28.69v-28.69h11.21v46.39h-11l-20.63-28.83v28.83h-11.21v-46.39h10.93Z"/>
    </g>
    <g>
      <path class="cls-1" d="M661.9,46.39h11.61l17.7,46.39h-11.75l-3.28-8.81h-16.94l-3.21,8.81h-11.82l17.7-46.39ZM673.25,74.81l-5.53-15.03-5.53,15.03h11.07Z"/>
      <path class="cls-1" d="M699.62,69.55c0-4.65,1.01-8.79,3.04-12.43,2.03-3.64,4.88-6.5,8.57-8.57,3.69-2.07,7.97-3.11,12.84-3.11,3.37,0,6.39.33,9.05.99,2.66.66,5.45,1.74,8.37,3.25v11h-.68c-2.73-1.73-5.45-2.95-8.16-3.66-2.71-.71-5.46-1.06-8.23-1.06-2.55,0-4.83.58-6.83,1.74-2,1.16-3.56,2.78-4.68,4.85-1.12,2.07-1.67,4.43-1.67,7.07s.56,4.99,1.67,7.04c1.12,2.05,2.68,3.66,4.68,4.82,2,1.16,4.28,1.74,6.83,1.74,2.78,0,5.52-.35,8.23-1.06,2.71-.71,5.43-1.92,8.16-3.66h.68v11c-2.92,1.5-5.7,2.59-8.37,3.25s-5.68.99-9.05.99c-4.87,0-9.15-1.04-12.84-3.11-3.69-2.07-6.55-4.94-8.57-8.61-2.03-3.67-3.04-7.82-3.04-12.47Z"/>
      <path class="cls-1" d="M767.53,46.39h11.61l17.7,46.39h-11.75l-3.28-8.81h-16.94l-3.21,8.81h-11.82l17.7-46.39ZM778.87,74.81l-5.53-15.03-5.53,15.03h11.07Z"/>
      <path class="cls-1" d="M807.97,92.78v-46.39h19.95c4.78,0,8.96.92,12.54,2.77,3.57,1.84,6.34,4.51,8.3,7.99,1.96,3.48,2.94,7.62,2.94,12.4s-.98,8.98-2.94,12.47c-1.96,3.48-4.73,6.15-8.3,7.99-3.58,1.84-7.75,2.77-12.54,2.77h-19.95ZM827.92,82.6c2.41,0,4.54-.57,6.39-1.71,1.84-1.14,3.28-2.7,4.3-4.68,1.03-1.98,1.54-4.2,1.54-6.66s-.51-4.67-1.54-6.63c-1.02-1.96-2.46-3.51-4.3-4.65-1.84-1.14-3.97-1.71-6.39-1.71h-8.74v26.03h8.74Z"/>
      <path class="cls-1" d="M898.84,46.39v10.18h-21.86v8.74h18.58v8.2h-18.58v9.09h21.86v10.18h-33.14v-46.39h33.14Z"/>
      <path class="cls-1" d="M916.05,46.39h11.07l13.05,25.28,12.71-25.28h11.41l4.1,46.39h-11.41l-2.12-27.4-11.41,20.09h-6.76l-11.21-20.09-2.12,27.4h-11.41l4.1-46.39Z"/>
      <path class="cls-1" d="M989.09,46.39l10.93,17.9,11-17.9h12.98l-18.38,28.56v17.83h-11.14v-17.83l-18.45-28.56h13.05Z"/>
    </g>
  </g>
</svg>